<svg id="Layer_42" data-name="Layer 42" xmlns="http://www.w3.org/2000/svg" width="17.95" height="15.553" viewBox="0 0 17.95 15.553">
  <path id="Path_17" data-name="Path 17" d="M1.6,18.553a.6.6,0,0,1-.6-.664L1.458,13.7a.6.6,0,0,1,.173-.353l9.787-9.786a1.914,1.914,0,0,1,2.71,0l1.86,1.86a1.914,1.914,0,0,1,0,2.71L6.208,17.913a.6.6,0,0,1-.353.173l-4.187.461Zm4.187-1.065ZM2.631,14.037l-.359,3.242,3.242-.359,9.631-9.631a.718.718,0,0,0,0-1.017L13.279,4.406a.718.718,0,0,0-1.017,0Z" transform="translate(-0.994 -3)" fill="#06283d"/>
  <path id="Path_18" data-name="Path 18" d="M20.1,10.9a.6.6,0,0,1-.425-.173L15.962,7a.6.6,0,0,1,.849-.849l3.727,3.727A.6.6,0,0,1,20.1,10.9Z" transform="translate(-6.937 -4.196)" fill="#06283d"/>
  <rect id="Rectangle_151" data-name="Rectangle 151" width="6.586" height="1.196" transform="translate(4.371 10.342) rotate(-45)" fill="#06283d"/>
  <path id="Path_19" data-name="Path 19" d="M23.17,28.2H13.6a.6.6,0,1,1,0-1.2H23.17a.6.6,0,1,1,0,1.2Z" transform="translate(-5.818 -12.644)" fill="#06283d"/>
</svg>
