<svg xmlns="http://www.w3.org/2000/svg" width="35.731" height="47.608" viewBox="0 0 35.731 47.608">
  <g id="Group_205" data-name="Group 205" transform="translate(-1127.861 -279.255)">
    <path id="Path_169" data-name="Path 169" d="M1131.4,326.863a10.366,10.366,0,0,1-1.9-.8,3.733,3.733,0,0,1-1.633-3.271q-.009-16.765,0-33.53a4.008,4.008,0,0,1,3.454-4.03c1.754-.364,3.473-.906,5.2-1.383q7.987-2.206,15.972-4.421a3.937,3.937,0,0,1,5.141,3.919c0,.588,0,1.176,0,1.835.63,0,1.243-.006,1.856,0a4,4,0,0,1,3.3,1.6,4.153,4.153,0,0,1,.8,2.614q0,8.278,0,16.556,0,8.347,0,16.7a3.94,3.94,0,0,1-2.263,3.8,8.4,8.4,0,0,1-1.272.409Zm-1.557-20.828v2.791q0,6.884,0,13.769a2.185,2.185,0,0,0,.775,1.856,2.4,2.4,0,0,0,1.578.436q9.28,0,18.56,0,4.3,0,8.605,0a1.946,1.946,0,0,0,1.9-.928,3.25,3.25,0,0,0,.34-1.461q.029-14.559.014-29.119,0-2,0-4a2.151,2.151,0,0,0-.649-1.68,2.315,2.315,0,0,0-1.679-.543q-6.931,0-13.862,0-6.629,0-13.257,0a2.219,2.219,0,0,0-1.9.785,2.413,2.413,0,0,0-.428,1.581Q1129.843,297.778,1129.841,306.034Zm25.817-20.869c0-.651.01-1.253,0-1.854a1.945,1.945,0,0,0-2.641-1.96q-6.642,1.826-13.281,3.663c-.1.027-.187.073-.385.152Z" fill="#03314b"/>
    <path id="Path_170" data-name="Path 170" d="M1198.477,403.039a10.918,10.918,0,1,1,10.919-10.871A10.941,10.941,0,0,1,1198.477,403.039Zm-2.936-11.933h5.8c.026-.056.051-.084.05-.111a16.222,16.222,0,0,0-1.157-5.788,7.09,7.09,0,0,0-.836-1.438,1.019,1.019,0,0,0-1.829,0,6.181,6.181,0,0,0-.591.94,12.353,12.353,0,0,0-1.184,4.028C1195.688,389.51,1195.628,390.292,1195.542,391.105Zm-.021,2.029c.126,1.027.2,2.03.383,3.013a10.076,10.076,0,0,0,1.538,4.146c.7.983,1.388.986,2.087.017a9.088,9.088,0,0,0,1.339-3.19,18.206,18.206,0,0,0,.533-3.986Zm11.752-2.028a8.593,8.593,0,0,0-5.423-7.159,19.5,19.5,0,0,1,1.586,7.159Zm-17.609-.01h3.884a19.614,19.614,0,0,1,1.631-7.266A9.047,9.047,0,0,0,1189.664,391.1Zm17.655,2.046h-3.824c-.177,1.246-.285,2.469-.54,3.66s-.659,2.359-1,3.531A8.948,8.948,0,0,0,1207.319,393.143Zm-17.66-.01a9.04,9.04,0,0,0,5.524,7.27,19.511,19.511,0,0,1-1.637-7.27Z" transform="translate(-52.763 -90.068)" fill="#03314b"/>
    <path id="Path_171" data-name="Path 171" d="M1196.533,586.088h9.535c.892,0,1.358.331,1.373.969s-.476,1.013-1.383,1.013q-9.535,0-19.069,0a2.575,2.575,0,0,1-.732-.089.964.964,0,0,1,.14-1.851,3.78,3.78,0,0,1,.648-.04q4.744,0,9.488,0Z" transform="translate(-51.029 -271.074)" fill="#03314b"/>
    <path id="Path_172" data-name="Path 172" d="M1226.679,620.028c1.844,0,3.687,0,5.531,0a2.722,2.722,0,0,1,.642.07.962.962,0,0,1-.02,1.864,3.046,3.046,0,0,1-.644.061q-5.554.005-11.108,0c-.093,0-.186,0-.279,0-.682-.043-1.111-.436-1.1-1.008a1.02,1.02,0,0,1,1.125-.985c1.053-.016,2.107,0,3.16,0Z" transform="translate(-81.135 -301.059)" fill="#03314b"/>
  </g>
</svg>
