<svg xmlns="http://www.w3.org/2000/svg" width="78.547" height="276.176" viewBox="0 0 78.547 276.176">
  <g id="Group_17" data-name="Group 17" transform="translate(-148.453 34.86)">
    <path id="Path_2" data-name="Path 2" d="M757.154,436.485a228.811,228.811,0,0,1,39.4,65.285c17.3,44.1,24,89.845,21.308,137.089-.374,6.55-1.746,8.335-9.143,7.525-8.291-.907-9.88-2.944-9.466-11.274,2.924-58.83-8.778-114.362-39-165.512C754.949,460.653,756.865,448.13,757.154,436.485Z" transform="translate(-608.128 -471.345)" fill="#14b9d1"/>
    <path id="Path_3" data-name="Path 3" d="M833.968,664.491a31.674,31.674,0,0,1-32.145,31.725,32.116,32.116,0,0,1-31.412-31.76c-.088-17.29,14.922-32.057,32.317-31.8A31.912,31.912,0,0,1,833.968,664.491ZM802.137,685.01a20.479,20.479,0,1,0,.31-40.957,20.479,20.479,0,0,0-.31,40.957Z" transform="translate(-606.969 -454.905)" fill="#03314b"/>
    <path id="Path_5" data-name="Path 5" d="M801.138,680.552a16.892,16.892,0,0,1-17.181-17.462c.1-9.8,7.793-17.135,17.718-16.911a17.189,17.189,0,0,1-.537,34.373Z" transform="translate(-605.834 -453.772)" fill="#14b9d1"/>
  </g>
</svg>
