<svg xmlns="http://www.w3.org/2000/svg" width="103.351" height="101.902" viewBox="0 0 103.351 101.902">
  <g id="Group_235" data-name="Group 235" transform="translate(-18.471 -30.191)">
    <g id="Floor" transform="translate(18.471 72.423)">
      <path id="Floor-2" data-name="Floor" d="M33.607,270.34c-20.181-11.651-20.181-30.542,0-42.193s52.9-11.651,73.08,0,20.181,30.541,0,42.193S53.787,281.992,33.607,270.34Z" transform="translate(-18.471 -219.41)" fill="#f5f5f5"/>
    </g>
    <g id="Shadow" transform="translate(33.902 79.94)">
      <ellipse id="Shadow-2" data-name="Shadow" cx="15.855" cy="9.154" rx="15.855" ry="9.154" transform="translate(0 25.668)" fill="#e0e0e0"/>
      <ellipse id="Shadow-3" data-name="Shadow" cx="22.618" cy="11.255" rx="22.618" ry="11.255" transform="translate(21.905 21.472) rotate(-28.337)" fill="#e0e0e0"/>
    </g>
    <g id="Plants" transform="translate(34.488 87.802)">
      <g id="Plants-2" data-name="Plants" transform="translate(61.041)">
        <g id="Group_236" data-name="Group 236" transform="translate(0)">
          <path id="Path_182" data-name="Path 182" d="M365.542,298c2.2-2.621,5.643-4.329,9.515-5.336,3.823-.995,4.509-3.347,1.974-4.111-2.873-.865-6.458.725-8.769,2.937-4.029,3.854-4.533,6.8-4.533,6.8Z" transform="translate(-363.729 -288.311)" fill="#03314b"/>
          <path id="Path_183" data-name="Path 183" d="M365.542,298c2.2-2.621,5.643-4.329,9.515-5.336,3.823-.995,4.509-3.347,1.974-4.111-2.873-.865-6.458.725-8.769,2.937-4.029,3.854-4.533,6.8-4.533,6.8Z" transform="translate(-363.729 -288.311)" opacity="0.15"/>
          <g id="Group_235-2" data-name="Group 235" transform="translate(0.569 1.149)">
            <path id="Path_184" data-name="Path 184" d="M366.39,301.844a.112.112,0,0,1-.1-.16c3.263-6.7,10.484-8.342,12.24-8.218a.112.112,0,0,1,.1.12.114.114,0,0,1-.12.1c-1.714-.131-8.81,1.5-12.022,8.093A.112.112,0,0,1,366.39,301.844Z" transform="translate(-366.278 -293.458)" fill="#fff"/>
          </g>
        </g>
        <g id="Group_238" data-name="Group 238" transform="translate(0 5.993)">
          <path id="Path_185" data-name="Path 185" d="M363.727,319.554a.61.61,0,0,0,.922.522c2.044-1.191,5.027-1.848,9.853-.475,2.566.73,3.829.242,4.37-.8.6-1.161-.672-2.282-2.121-2.812-4.939-1.8-9.4-.573-13.023,3.028Z" transform="translate(-363.727 -315.164)" fill="#03314b"/>
          <g id="Group_237" data-name="Group 237" transform="translate(0.169 1.5)">
            <path id="Path_186" data-name="Path 186" d="M364.6,324.871a.112.112,0,0,1-.074-.195c4.264-3.811,10.871-3.07,13.372-1.583a.112.112,0,1,1-.114.192c-2.45-1.456-8.926-2.181-13.109,1.558A.111.111,0,0,1,364.6,324.871Z" transform="translate(-364.486 -321.885)" fill="#fff"/>
          </g>
        </g>
      </g>
      <g id="Plants-3" data-name="Plants" transform="translate(0 8.452)">
        <g id="Group_240" data-name="Group 240" transform="translate(1.353)">
          <path id="Path_187" data-name="Path 187" d="M108.266,337c-1.874-2.862-5.093-4.964-8.819-6.422-3.679-1.439-4.082-3.856-1.476-4.315,2.955-.52,6.327,1.482,8.362,3.951,3.546,4.3,3.7,7.292,3.7,7.292Z" transform="translate(-96.298 -326.179)" fill="#03314b"/>
          <path id="Path_188" data-name="Path 188" d="M108.266,337c-1.874-2.862-5.093-4.964-8.819-6.422-3.679-1.439-4.082-3.856-1.476-4.315,2.955-.52,6.327,1.482,8.362,3.951,3.546,4.3,3.7,7.292,3.7,7.292Z" transform="translate(-96.298 -326.179)" opacity="0.15"/>
          <g id="Group_239" data-name="Group 239" transform="translate(1.927 1.049)">
            <path id="Path_189" data-name="Path 189" d="M116.115,340.629a.113.113,0,0,0,.05-.005.111.111,0,0,0,.069-.142c-2.45-7.034-9.427-9.521-11.184-9.605a.112.112,0,0,0-.117.107.114.114,0,0,0,.107.116c1.717.072,8.571,2.53,10.984,9.455A.111.111,0,0,0,116.115,340.629Z" transform="translate(-104.933 -330.877)" fill="#fff"/>
          </g>
        </g>
        <g id="Group_242" data-name="Group 242" transform="translate(0 6.269)">
          <path id="Path_190" data-name="Path 190" d="M105.337,359.187a.928.928,0,0,1-1.44.661c-1.892-1.267-4.711-2.09-9.329-1.35-2.634.422-3.831-.212-4.245-1.313-.46-1.223.937-2.187,2.439-2.542,5.117-1.209,9.4.54,12.575,4.544Z" transform="translate(-90.235 -354.266)" fill="#03314b"/>
          <g id="Group_241" data-name="Group 241" transform="translate(1.688 1.522)">
            <path id="Path_191" data-name="Path 191" d="M110.858,365.083a.112.112,0,0,0,.1-.185c-3.785-4.288-10.433-4.331-13.092-3.149a.112.112,0,1,0,.091.2c2.6-1.157,9.121-1.113,12.834,3.093A.11.11,0,0,0,110.858,365.083Z" transform="translate(-97.797 -361.087)" fill="#fff"/>
          </g>
        </g>
      </g>
    </g>
    <g id="Check_mark" data-name="Check mark" transform="translate(56.217 44.687)">
      <g id="Check_Mark-2" data-name="Check Mark" transform="translate(0 0)">
        <g id="Circle" transform="translate(0 5.312)">
          <path id="Path_192" data-name="Path 192" d="M230.717,125.018v0l-.035-.018,0,0-8.508-4.9-.008,0-.05-.025v0c-3.974-2-9.278-1.4-14.982,2.285-11.459,7.41-20.191,24.466-19.5,38.1.343,6.793,2.962,11.452,6.921,13.5v0l.035.018,0,0,8.51,4.9,0,0,.042.021v0c3.975,2.011,9.283,1.412,14.992-2.28,11.459-7.41,20.191-24.466,19.5-38.095C237.3,131.724,234.676,127.066,230.717,125.018Z" transform="translate(-187.589 -118.941)" fill="#37474f"/>
          <path id="Path_193" data-name="Path 193" d="M202.808,256.212l-8.217-4.745h-.006l-.038-.023c-3.957-2.053-6.575-6.711-6.917-13.5a42.453,42.453,0,0,1,4.105-19.109l.057-.137,8.454,5.035a42.367,42.367,0,0,0-4.106,19.109C196.475,249.495,198.991,254.1,202.808,256.212Z" transform="translate(-187.59 -196.437)" fill="#263238"/>
          <path id="Path_194" data-name="Path 194" d="M247.766,193.665c11.459-7.41,20.191-24.466,19.5-38.095s-10.535-18.671-21.994-11.26-20.192,24.466-19.5,38.095S236.307,201.075,247.766,193.665Z" transform="translate(-217.22 -135.993)" fill="#455a64"/>
        </g>
        <path id="Shadow-4" data-name="Shadow" d="M276.523,141.434l-14.362,29.582-3.091-3.35a5.081,5.081,0,0,0-7.466,6.895l8.143,8.821a5.054,5.054,0,0,0,3.458,1.626q.141.007.282.008a5.211,5.211,0,0,0,.736-.053,5.074,5.074,0,0,0,3.828-2.807l16.472-33.927A11.076,11.076,0,0,0,276.523,141.434Z" transform="translate(-236.272 -131.101)" fill="#37474f"/>
        <g id="Group_243" data-name="Group 243" transform="translate(15.538)">
          <path id="Path_195" data-name="Path 195" d="M293.581,95.727q-.134-.077-.276-.146a4.419,4.419,0,0,0-5.9,2.04l-18.276,37.644-1.038-1.125a4.332,4.332,0,0,0-1.036-.827c-.545-.312-2.862-1.654-3.237-1.871a4.412,4.412,0,0,0-5.45,6.813l8.143,8.822a4.375,4.375,0,0,0,1.051.836c.532.3,2.84,1.641,3.218,1.86a4.4,4.4,0,0,0,1.974.586,4.5,4.5,0,0,0,.883-.039,4.407,4.407,0,0,0,3.323-2.437l21.621-44.534a4.419,4.419,0,0,0-1.76-5.749C296.735,97.548,294.158,96.059,293.581,95.727Z" transform="translate(-257.205 -95.139)" fill="#32b721"/>
          <path id="Path_196" data-name="Path 196" d="M293.581,95.727q-.134-.077-.276-.146a4.419,4.419,0,0,0-5.9,2.04l-18.276,37.644-1.038-1.125a4.332,4.332,0,0,0-1.036-.827c-.545-.312-2.862-1.654-3.237-1.871a4.412,4.412,0,0,0-5.45,6.813l8.143,8.822a4.375,4.375,0,0,0,1.051.836c.532.3,2.84,1.641,3.218,1.86a4.4,4.4,0,0,0,1.974.586,4.5,4.5,0,0,0,.883-.039,4.407,4.407,0,0,0,3.323-2.437l21.621-44.534a4.419,4.419,0,0,0-1.76-5.749C296.735,97.548,294.158,96.059,293.581,95.727Z" transform="translate(-259.205 -95.139)" opacity="0.15"/>
          <path id="Path_197" data-name="Path 197" d="M271.911,295.17c-.376-.218-2.685-1.557-3.218-1.86a4.407,4.407,0,0,1-1.052-.835l-8.143-8.821a4.421,4.421,0,0,1-.842-1.34l3.238,1.869a4.34,4.34,0,0,0,.846,1.343l8.144,8.821A4.435,4.435,0,0,0,271.911,295.17Z" transform="translate(-258.333 -240.537)" opacity="0.15"/>
          <path id="Path_198" data-name="Path 198" d="M333.188,102.051a4.37,4.37,0,0,0-1.023,1.357l-18.8,38.72-2.719-2.947,18.276-37.643a4.321,4.321,0,0,1,1.025-1.357Z" transform="translate(-298.721 -98.309)" opacity="0.15"/>
          <path id="Check" d="M307.828,103.966a4.419,4.419,0,0,0-5.9,2.04l-18.8,38.719-3.757-4.072a4.411,4.411,0,0,0-6.481,5.987l8.143,8.822a4.387,4.387,0,0,0,3,1.411,4.5,4.5,0,0,0,.883-.039,4.407,4.407,0,0,0,3.324-2.437l21.621-44.534A4.418,4.418,0,0,0,307.828,103.966Z" transform="translate(-268.486 -101.653)" fill="#32b721"/>
        </g>
      </g>
    </g>
    <g id="Character" transform="translate(32.2 37.183)">
      <g id="Character-2" data-name="Character" transform="translate(0 0)">
        <g id="Group_244" data-name="Group 244" transform="translate(0 8.225)">
          <path id="Path_199" data-name="Path 199" d="M97.222,104.308a4.371,4.371,0,0,0-4.077,2.166c-1.109,1.58-4.16,6.847-4.16,6.847s-2.225-4.579-2.456-5.492-.211-1.319.009-1.715a3.583,3.583,0,0,0,.564-1.57c.086-1.1.355-2.036.109-2.068-.682-.039-.707.835-1.065,1.352a.427.427,0,0,1-.686-.075,5.538,5.538,0,0,1-.142-1.169,5.059,5.059,0,0,1,.1-.6,2.659,2.659,0,0,0,.781.022c.294.462.5.657.907.469a2.6,2.6,0,0,0-.443-1.107.318.318,0,0,0-.183-.14,3.477,3.477,0,0,0-1.514-.042.283.283,0,0,0-.194.108,3.709,3.709,0,0,0-.436.886c-.03.095-.118.093-.14.01a19.06,19.06,0,0,1-.221-3.326c0-.564-.825-.652-.854.155a26.149,26.149,0,0,0,.056,3.253c.013.1-.1.144-.137.037a13.48,13.48,0,0,1-.641-3.527c-.04-.535-.905-.623-.9.129a19.065,19.065,0,0,0,.5,3.964c.025.094-.06.177-.126.07a12.917,12.917,0,0,1-.97-2.446c-.184-.646-1.047-.482-.9.323a19.4,19.4,0,0,0,1.338,4.576,24.479,24.479,0,0,1,1.612,3.19c.338,1.1,1.744,7.3,3.245,9.723,1.176,1.9,2.523,1.721,3.97.721s6.624-8.212,6.624-8.212Z" transform="translate(-79.981 -98.366)" fill="#9e6767"/>
          <path id="Path_200" data-name="Path 200" d="M120.319,163.425a7,7,0,0,1,.836,2.215,3.866,3.866,0,0,0-.512-2.772Z" transform="translate(-111.316 -148.471)" fill="#874c4c"/>
          <path id="Path_201" data-name="Path 201" d="M131.2,124.856a4.6,4.6,0,0,0-3.145.637,7.082,7.082,0,0,0-2.2,2.733c-.582.921-2.6,4.188-2.6,4.188a5.24,5.24,0,0,0,3.677,3.739l4.4-5.969Z" transform="translate(-113.597 -118.908)" fill="#14b9d1"/>
        </g>
        <g id="Group_248" data-name="Group 248" transform="translate(10.857 34.396)">
          <g id="Group_245" data-name="Group 245" transform="translate(1.437 31.983)">
            <path id="Path_202" data-name="Path 202" d="M144.4,369.224c.214-.027.519.733.523.981a3.166,3.166,0,0,1-.574,1.281,9.012,9.012,0,0,0-1.082,1.925,6.521,6.521,0,0,1-1.187,2.039,5.079,5.079,0,0,1-5.4,1.95,2.57,2.57,0,0,1-1.267-.64.828.828,0,0,1-.195-.852Z" transform="translate(-135.149 -366.925)" fill="#263238"/>
            <path id="Path_203" data-name="Path 203" d="M138.846,360.353l-.006.024a1.79,1.79,0,0,0,.019.627,4.383,4.383,0,0,1-1.056,3.436,6.582,6.582,0,0,1-1.3,1.053c-1.412.9-1.563,1.5-1.364,2.413.472,1.06,3.672,1.705,5.511.126a5.4,5.4,0,0,0,1.751-2.381,17.149,17.149,0,0,1,.928-1.964c.357-.669,1.031-1.424,1.051-2.114a4.164,4.164,0,0,0-.729-1.665c-.335-.533-.679-1.04-.98-.981l.083.3c-.251.261-.615.358-.835.664a5.6,5.6,0,0,0-.43,1.318.152.152,0,0,1-.082.1.107.107,0,0,1-.117-.06.317.317,0,0,1-.026-.139q-.01-.325-.02-.649a.542.542,0,0,0-.094-.352c-.174-.2-.6-.174-.842-.183a9.162,9.162,0,0,0-.962.058.47.47,0,0,0-.313.083A.566.566,0,0,0,138.846,360.353Z" transform="translate(-135.065 -358.923)" fill="#37474f"/>
          </g>
          <g id="Group_246" data-name="Group 246" transform="translate(0 0)">
            <path id="Path_204" data-name="Path 204" d="M129.89,236.062c.744,2.443,4.218,10.9,4.427,11.413s.691,1.679.691,1.679a2.6,2.6,0,0,0,1.411.059c.073.811.2,2.081.244,2.722a10.914,10.914,0,0,1-.079,2.4c-.136.626-.294,1.281-.412,1.909-.052.278-.1.555-.146.835a1.4,1.4,0,0,0,.07.877,1.1,1.1,0,0,0,.276.313,2.458,2.458,0,0,0,1.751.514,1.841,1.841,0,0,0,.928-.307,3.853,3.853,0,0,0,1.005-1.63,2.316,2.316,0,0,0,.227-1.351c.018-.464.146-1.643.332-2.874s.985-5.562,1.368-9.877a35.376,35.376,0,0,0,0-5.758c3.049-8.283,4.406-13.208,4.805-15.959a22.521,22.521,0,0,0,.16-5.4l-14.826.357C130.929,223.644,128.893,232.784,129.89,236.062Zm7.243-13.142Z" transform="translate(-129.401 -215.624)" fill="#9e6767"/>
            <path id="Path_205" data-name="Path 205" d="M128.884,232.3c.306-2.817,2.412-13.644,2.412-13.644h14.937s.094,2.078.067,3.033a28.222,28.222,0,0,1-.868,4.906c-.535,2.206-2.51,8.456-2.892,9.378s-1.121,3.587-1.121,3.587c.366,5.009-.586,9.5-1.3,15.478,0,0-.207.807-2.324.647-2.057-.155-2.472-.914-2.472-.914l-.138-5.155a4.462,4.462,0,0,1-1.785.187s-4.421-10.914-4.635-11.572A22.91,22.91,0,0,1,128.884,232.3Z" transform="translate(-128.627 -217.98)" fill="#03314b"/>
            <path id="Path_206" data-name="Path 206" d="M128.884,232.3c.306-2.817,2.412-13.644,2.412-13.644h14.937s.094,2.078.067,3.033a28.222,28.222,0,0,1-.868,4.906c-.535,2.206-2.51,8.456-2.892,9.378s-1.121,3.587-1.121,3.587c.366,5.009-.586,9.5-1.3,15.478,0,0-.207.807-2.324.647-2.057-.155-2.472-.914-2.472-.914l-.138-5.155a4.462,4.462,0,0,1-1.785.187s-4.421-10.914-4.635-11.572A22.91,22.91,0,0,1,128.884,232.3Z" transform="translate(-128.668 -217.98)" opacity="0.45"/>
            <path id="Path_207" data-name="Path 207" d="M149.168,238.361a8.831,8.831,0,0,1-2.585-3.424,14.1,14.1,0,0,0,3.724,2.985s-2.008,10.606-1.862,12.787.69,11.556.69,11.556c0,.09-1.424-9.915-1.465-10.715C147.563,249.444,149.168,238.361,149.168,238.361Z" transform="translate(-142.575 -230.626)" opacity="0.2"/>
          </g>
          <g id="Group_247" data-name="Group 247" transform="translate(1.104 39.081)">
            <path id="Path_208" data-name="Path 208" d="M144.43,405.464c.208.059.182.681.088.911a2.829,2.829,0,0,1-.965,1,4.669,4.669,0,0,0-1.416,1.526,7.149,7.149,0,0,1-2.221,2.168,5.367,5.367,0,0,1-3.906.543c-1.4-.4-1.532-.741-1.519-1.27Z" transform="translate(-134.285 -402.174)" fill="#263238"/>
            <path id="Path_209" data-name="Path 209" d="M139.381,390.77a6.3,6.3,0,0,1-2.494,4.2c-1.181.878-2.04,1.324-2.982,2.109-.4.334-.435,1.047-.127,1.815a4.283,4.283,0,0,0,2.76.8,3.9,3.9,0,0,0,2.664-.776,7.031,7.031,0,0,0,1.066-.9c.654-.656,1.109-1.465,1.581-1.985s1.492-1.051,1.782-1.678a4.165,4.165,0,0,0-.015-1.82c-.1-.622.093-1.716-.208-1.78.006,0-.041.445-.041.445-.025.1-.087.152-.3.225a1.513,1.513,0,0,1-.575.017.34.34,0,0,0-.384.109c-.2.237-.255.571-.513.768a.159.159,0,0,1-.06.032.064.064,0,0,1-.062-.018.1.1,0,0,1-.011-.073q.037-.334.075-.667a.818.818,0,0,0,.006-.2.438.438,0,0,0-.216-.293,2.427,2.427,0,0,0-.6-.249,3.71,3.71,0,0,0-.665-.113A2.084,2.084,0,0,0,139.381,390.77Z" transform="translate(-133.572 -390.726)" fill="#455a64"/>
          </g>
        </g>
        <path id="Path_210" data-name="Path 210" d="M153.8,125.649a8.817,8.817,0,0,1,1.108,2.584,42.314,42.314,0,0,1,.938,8.687c0,3.942-.532,10.333-.532,10.333-4.577,2.294-11.96.938-15.209-1.3.131-.71.243-4.441.5-6.9.173-4.223.316-6.436.345-8.315.06-3.754,1.928-5.693,3.34-5.722l3.584.056Z" transform="translate(-126.685 -110.84)" fill="#03314b"/>
        <g id="Group_249" data-name="Group 249" transform="translate(25.29 14.791)">
          <path id="Path_211" data-name="Path 211" d="M196.246,219.466a11.347,11.347,0,0,0-2.261,2.179c-.28.621-.454,1.555-.636,1.917s.1.529.489.4.628-.461.931-1.273a3.846,3.846,0,0,1,1.147-1.448Z" transform="translate(-193.292 -199.004)" fill="#874c4c"/>
          <path id="Path_212" data-name="Path 212" d="M195.343,155.616c.162.314.543.315.9.344a2.865,2.865,0,0,0,1.265-.144,2.3,2.3,0,0,0,1.216-.847,6.555,6.555,0,0,0,.628-1.684c.412-1.195,1.636-2.055,1.835-3.321a7.551,7.551,0,0,1,.231-1.463c.087-.191,2.1-3.653,2.815-5.153.689-1.441,1.2-2.119.58-3.853s-2.753-7.828-4.258-9.945c-.854-1.2-2.209-1.544-3.852-1.686a9.72,9.72,0,0,0,.2,6.619l3.306,6.378s-1.285,4.392-2.089,6.835a8.043,8.043,0,0,1-1.181,1.85c-.22.327-.726.9-.906,1.249a4.109,4.109,0,0,0-.334,1.372A24.019,24.019,0,0,0,195.343,155.616Z" transform="translate(-194.875 -127.848)" fill="#9e6767"/>
          <path id="Path_213" data-name="Path 213" d="M198.831,127.788a7.92,7.92,0,0,1,2.847.555c.742.375,1.255.838,2.11,2.547s2.1,5.031,2.1,5.031-.413,2.506-4.376,3.156l-2.679-4.939A9.88,9.88,0,0,1,198.831,127.788Z" transform="translate(-197.182 -127.788)" fill="#14b9d1"/>
        </g>
        <g id="Group_254" data-name="Group 254" transform="translate(14.421)">
          <g id="Group_251" data-name="Group 251">
            <g id="Group_250" data-name="Group 250">
              <path id="Path_214" data-name="Path 214" d="M146.815,68.331a5.4,5.4,0,0,1,.3.652,3.809,3.809,0,0,0,.5.829,8.48,8.48,0,0,0,1.893,1.444,2.027,2.027,0,0,0,1.341.424,6.831,6.831,0,0,1,1.533.081l1.756.157-.1,1.847s.218-.489.515-1.074c.256-.5,1.322-3.05,1.326-3.06.528-1.263,1.157-2.945.524-4.271a1.761,1.761,0,0,0-.687-.787,1.551,1.551,0,0,0,.058-.629,2.024,2.024,0,0,0-.932-1.478,4.438,4.438,0,0,0-1.657-.682,10.525,10.525,0,0,0-2.4-.267,14.337,14.337,0,0,0-2.352.27,8.471,8.471,0,0,1-1.31.137,2.479,2.479,0,0,1-.568-.027,6.357,6.357,0,0,1-.684-.247.16.16,0,0,0-.122-.01.153.153,0,0,0-.066.105,1.988,1.988,0,0,0,.365,1.61,1.082,1.082,0,0,1-.29-.084,2.1,2.1,0,0,1-.3-.17,1.724,1.724,0,0,1-.424-.4.128.128,0,0,0-.07-.052c-.044-.008-.082.031-.108.067a1.574,1.574,0,0,0-.232,1.234,2.7,2.7,0,0,0,.581,1.14,1.565,1.565,0,0,0-.079,1.5,2.015,2.015,0,0,0,.394.567c.2.205.438.373.648.564A3.9,3.9,0,0,1,146.815,68.331Z" transform="translate(-144.595 -61.517)" fill="#37474f"/>
              <path id="Path_215" data-name="Path 215" d="M155.872,78.117A3.468,3.468,0,0,0,156,79.1a1.941,1.941,0,0,0,.5.734,5.771,5.771,0,0,1,.691.7,2.94,2.94,0,0,1,.389,1.285.907.907,0,0,0,.339.693c.477.3.764-.277,1.018-.558a1.059,1.059,0,0,1,1.753.361,2.228,2.228,0,0,1-1.177,2.71c-1.351.376-1.644-.543-1.644-.543l-.259,4.821a3.591,3.591,0,0,1-3.729,1.673c-1.015-.2-1.573-.91-.618-1.942l.052-1.468a8.432,8.432,0,0,1-1.806.034c-.978-.184-1.464-1.016-1.728-2.09-.424-1.726-.617-3.539-.094-7.424.241-.132,1.206.62,2.668.721A6.788,6.788,0,0,0,155.872,78.117Z" transform="translate(-148.302 -74.378)" fill="#9e6767"/>
            </g>
            <path id="Path_216" data-name="Path 216" d="M166.971,114.459a16.841,16.841,0,0,0,2.991-.754,2.532,2.532,0,0,0,1.1-1.015,3.463,3.463,0,0,1-.643,1.219c-.585.7-3.462,1.135-3.462,1.135Z" transform="translate(-161.962 -101.269)" fill="#874c4c"/>
          </g>
          <g id="Group_253" data-name="Group 253" transform="translate(0.034 5.04)">
            <path id="Path_217" data-name="Path 217" d="M172.15,84.578l1.029.315a.565.565,0,0,0-.369-.689A.525.525,0,0,0,172.15,84.578Z" transform="translate(-166.034 -84.163)" fill="#263238"/>
            <path id="Path_218" data-name="Path 218" d="M165.277,107.839l-1.514.513a.785.785,0,0,0,1,.529A.837.837,0,0,0,165.277,107.839Z" transform="translate(-159.519 -102.54)" fill="#874c4c"/>
            <path id="Path_219" data-name="Path 219" d="M166.995,109.5a.891.891,0,0,0-.863.677.763.763,0,0,0,.472-.006.821.821,0,0,0,.539-.656A.883.883,0,0,0,166.995,109.5Z" transform="translate(-161.359 -103.831)" fill="#f28f8f"/>
            <path id="Path_220" data-name="Path 220" d="M151.563,84.687l1.045-.138a.509.509,0,0,0-.578-.446A.536.536,0,0,0,151.563,84.687Z" transform="translate(-150.04 -84.099)" fill="#263238"/>
            <path id="Path_221" data-name="Path 221" d="M180.4,88.732l3.452,1.183a1.257,1.257,0,0,0-.995.5l-2.445-.928Z" transform="translate(-172.444 -87.698)" fill="#263238"/>
            <path id="Path_222" data-name="Path 222" d="M153.875,93.316a.413.413,0,1,0,.427-.416A.42.42,0,0,0,153.875,93.316Z" transform="translate(-151.838 -90.935)" fill="#263238"/>
            <path id="Path_223" data-name="Path 223" d="M171.549,93.325a.413.413,0,1,0,.427-.416A.42.42,0,0,0,171.549,93.325Z" transform="translate(-165.567 -90.942)" fill="#263238"/>
            <g id="Group_252" data-name="Group 252" transform="translate(0 0.805)">
              <path id="Path_224" data-name="Path 224" d="M144.75,88.186a.94.94,0,0,0,.218.487.417.417,0,0,1,.087.173,8.7,8.7,0,0,0,.307,1.314,1.453,1.453,0,0,0,1.415.934,2.049,2.049,0,0,0,.481-.041l.036-.008a1.383,1.383,0,0,0,.391-.154l.023-.015.033-.021.042-.029.039-.029.042-.035c.014-.011.027-.023.041-.036s.051-.05.075-.077a1.821,1.821,0,0,0,.314-.5c.2-.459.151-1.1.487-1.176l.04-.006.044,0c.456.007.406.707.661,1.207a1.706,1.706,0,0,0,1.667,1c.044,0,.087,0,.128,0s.069,0,.1-.007a1.774,1.774,0,0,0,.238-.034l.075-.017.071-.021.045-.014a1.347,1.347,0,0,0,.268-.126c.031-.02.061-.04.09-.06a1.232,1.232,0,0,0,.155-.136,1.581,1.581,0,0,0,.3-.464,8.207,8.207,0,0,0,.27-1.3.567.567,0,0,1,.076-.189.893.893,0,0,0,.223-.47.407.407,0,0,0-.276-.413c-.078-.011-.159-.022-.243-.032a7.419,7.419,0,0,0-2.409.029c-.764.209-1.029.454-1.455.448-.4-.009-.657-.263-1.381-.5a6.544,6.544,0,0,0-2.257-.116q-.117.011-.225.024C144.867,87.788,144.735,87.976,144.75,88.186Zm5.026.478a.65.65,0,0,1,.217-.178l.039-.022.022-.011c.034-.018.07-.035.108-.051s.065-.028.1-.041a2.868,2.868,0,0,1,.326-.1c.043-.011.086-.021.13-.03a3.036,3.036,0,0,1,.336-.053c.027,0,.054-.006.079-.006a1.943,1.943,0,0,1,1.361.264c.173.156.095.836.025,1.181l-.005.026-.005.027c-.008.042-.019.089-.031.139-.007.028-.015.057-.024.086v0q-.02.07-.049.144h0l-.02.049c0,.01-.008.019-.013.029s-.01.022-.015.033l-.02.041c-.008.015-.016.031-.025.046s-.019.032-.029.049-.021.032-.032.049a1.156,1.156,0,0,1-1.028.485,1.418,1.418,0,0,1-1.086-.414h0a1.539,1.539,0,0,1-.356-.7A1.581,1.581,0,0,1,149.776,88.664Zm-4.327-.36a.634.634,0,0,1,.18-.114l.014-.006c.024-.011.051-.021.079-.031l.049-.015.04-.011.027-.007.01,0,.04-.009c.052-.012.109-.021.169-.028.03,0,.06-.007.092-.009l.055,0,.043,0h.2a3.254,3.254,0,0,1,.339.032,2.084,2.084,0,0,1,1.215.535,1.7,1.7,0,0,1,.042,1.047,1.77,1.77,0,0,1-.066.257c0,.006,0,.013-.007.02l-.009.026-.006.017-.013.031c-.009.022-.018.042-.028.064s-.018.036-.027.054l-.011.019-.021.037-.02.031,0,.005a1.152,1.152,0,0,1-1.092.5,1.291,1.291,0,0,1-.55-.132,1.559,1.559,0,0,1-.716-1.122C145.4,89.137,145.293,88.454,145.449,88.3Z" transform="translate(-144.749 -87.707)" fill="#263238"/>
            </g>
            <path id="Path_225" data-name="Path 225" d="M157.918,93.37l-.078,2.869-1.6-.462,1.492-2.431A.415.415,0,0,1,157.918,93.37Z" transform="translate(-153.674 -91.281)" fill="#874c4c"/>
          </g>
        </g>
      </g>
    </g>
    <g id="Speech_bubble" data-name="Speech bubble" transform="translate(64.259 30.191)">
      <g id="Speech_Bubble-2" data-name="Speech Bubble" transform="translate(0 0)">
        <g id="Speech_Bubble-3" data-name="Speech Bubble">
          <ellipse id="Ellipse_49" data-name="Ellipse 49" cx="8.269" cy="7.243" rx="8.269" ry="7.243" transform="translate(0.748)" fill="#03314b"/>
          <path id="Path_226" data-name="Path 226" d="M226.034,81.406a4.27,4.27,0,0,1-2.352,3.339.1.1,0,0,0,.017.2,4.458,4.458,0,0,0,4.576-1.733Z" transform="translate(-223.618 -69.975)" fill="#03314b"/>
        </g>
        <g id="Group_255" data-name="Group 255" transform="translate(3.393 4.308)">
          <path id="Path_227" data-name="Path 227" d="M238.839,51.854a2.639,2.639,0,0,1,.213-.919,2.2,2.2,0,0,1,.531-.749,2.556,2.556,0,0,1,.836-.505,3.529,3.529,0,0,1,2.269,0,2.552,2.552,0,0,1,.84.505,2.205,2.205,0,0,1,.531.749,2.649,2.649,0,0,1,.213.919q.017.374.017.783t-.017.766a2.646,2.646,0,0,1-.213.919,2.251,2.251,0,0,1-.531.753,2.454,2.454,0,0,1-.84.505,3.61,3.61,0,0,1-2.269,0,2.457,2.457,0,0,1-.836-.505,2.242,2.242,0,0,1-.531-.753,2.636,2.636,0,0,1-.213-.919q-.018-.357-.017-.766T238.839,51.854Zm3.823,1.507q.008-.157.017-.349t.009-.392q0-.2-.009-.387c-.006-.125-.012-.237-.017-.335a1.364,1.364,0,0,0-.091-.4.957.957,0,0,0-.209-.318.967.967,0,0,0-.335-.213,1.446,1.446,0,0,0-.94,0,.969.969,0,0,0-.335.213.945.945,0,0,0-.209.318,1.336,1.336,0,0,0-.092.4c-.012.1-.019.21-.022.335s0,.254,0,.387,0,.264,0,.392.01.244.022.349a1.166,1.166,0,0,0,.3.723,1.046,1.046,0,0,0,.806.287,1.032,1.032,0,0,0,.8-.287A1.225,1.225,0,0,0,242.662,53.361Z" transform="translate(-238.822 -49.494)" fill="#fafafa"/>
          <path id="Path_228" data-name="Path 228" d="M272.975,55.692a.156.156,0,0,1,.026.1.193.193,0,0,1-.191.192h-1.385a.354.354,0,0,1-.2-.052.735.735,0,0,1-.157-.148l-1.646-2.073v2.038a.238.238,0,0,1-.235.235h-1.141a.237.237,0,0,1-.235-.235V50.119a.238.238,0,0,1,.235-.235h1.141a.239.239,0,0,1,.235.235v1.837l1.533-1.881q.044-.052.113-.122a.325.325,0,0,1,.235-.07h1.358a.193.193,0,0,1,.192.191.157.157,0,0,1-.026.1l-2.151,2.63Z" transform="translate(-261.341 -49.797)" fill="#fafafa"/>
        </g>
      </g>
    </g>
    <g id="Icons" transform="translate(25.906 38.586)">
      <g id="Like_icon" data-name="Like icon" transform="translate(66.55)">
        <path id="Path_229" data-name="Path 229" d="M352.113,82.816l-1.251.377-.905-3.019,1.249-.376Z" transform="translate(-349.957 -77.12)" fill="#e0e0e0"/>
        <path id="Path_230" data-name="Path 230" d="M361.88,70.818a.58.58,0,0,1-.355.584.869.869,0,0,1,.175.319c.072.234-.119.548-.5.66l-2.864.862-.843-2.8h0s.486-1.24.51-1.427a4.593,4.593,0,0,0-.3-1c-.032-.106.424-.3.791-.15a.638.638,0,0,1,.234.162,1.984,1.984,0,0,1,.328.47,1.7,1.7,0,0,1,.174.792l1.73-.52a.537.537,0,0,1,.37.012.5.5,0,0,1,.285.3.514.514,0,0,1-.147.523.461.461,0,0,1,.473.318.512.512,0,0,1-.285.58A.542.542,0,0,1,361.88,70.818Z" transform="translate(-355.814 -67.803)" fill="#e0e0e0"/>
      </g>
      <g id="Like_icon-2" data-name="Like icon" transform="translate(85.043 30.785)">
        <path id="Path_231" data-name="Path 231" d="M434.42,218.8l-1.6-.386.935-3.871,1.6.385Z" transform="translate(-432.815 -212.577)" fill="#e0e0e0"/>
        <path id="Path_232" data-name="Path 232" d="M447.958,211.522a.733.733,0,0,1-.759.412,1.1,1.1,0,0,1-.012.461.755.755,0,0,1-.961.4l-3.674-.884.867-3.6,0,0s1.32-1.044,1.465-1.232a5.817,5.817,0,0,0,.311-1.288c.033-.136.652-.055.958.339a.807.807,0,0,1,.152.325,2.511,2.511,0,0,1,.058.722,2.151,2.151,0,0,1-.314.975l2.219.534a.681.681,0,0,1,.4.249.637.637,0,0,1,.118.512.649.649,0,0,1-.493.477.582.582,0,0,1,.314.648.647.647,0,0,1-.681.451A.685.685,0,0,1,447.958,211.522Z" transform="translate(-440.379 -205.736)" fill="#e0e0e0"/>
      </g>
      <g id="Like_icon-3" data-name="Like icon" transform="translate(0 26.715)">
        <path id="Path_233" data-name="Path 233" d="M76.823,208.524l1.752.527,1.268-4.227-1.749-.527Z" transform="translate(-71.234 -200.548)" fill="#e0e0e0"/>
        <path id="Path_234" data-name="Path 234" d="M51.9,191.722a.813.813,0,0,0,.5.818,1.214,1.214,0,0,0-.246.447c-.1.327.167.768.693.924l4.01,1.207,1.18-3.926h0s-.681-1.737-.714-2a6.462,6.462,0,0,1,.422-1.407c.045-.148-.593-.417-1.107-.21a.894.894,0,0,0-.327.226,2.779,2.779,0,0,0-.46.659,2.39,2.39,0,0,0-.244,1.109l-2.423-.729a.755.755,0,0,0-.519.016.708.708,0,0,0-.4.424.719.719,0,0,0,.206.732.645.645,0,0,0-.663.445.717.717,0,0,0,.4.812A.76.76,0,0,0,51.9,191.722Z" transform="translate(-51.783 -187.5)" fill="#e0e0e0"/>
      </g>
    </g>
  </g>
</svg>
