<svg id="camera" xmlns="http://www.w3.org/2000/svg" width="12.171" height="12.171" viewBox="0 0 12.171 12.171">
  <path id="Path_593" data-name="Path 593" d="M12.082,1.521,11.365.592A1.533,1.533,0,0,0,10.16,0H8.2A1.533,1.533,0,0,0,7,.592l-.717.929Z" transform="translate(-3.095)" fill="#fff"/>
  <ellipse id="Ellipse_56" data-name="Ellipse 56" cx="1.769" cy="2.123" rx="1.769" ry="2.123" transform="translate(4.245 5.096)" fill="#fff"/>
  <path id="Path_594" data-name="Path 594" d="M9.636,5h-7.1A2.539,2.539,0,0,0,0,7.536V12.1a2.539,2.539,0,0,0,2.536,2.536h7.1A2.539,2.539,0,0,0,12.171,12.1V7.536A2.539,2.539,0,0,0,9.636,5Zm-3.55,7.607A3.043,3.043,0,1,1,9.129,9.564a3.043,3.043,0,0,1-3.043,3.043Z" transform="translate(0 -2.464)" fill="#fff"/>
</svg>
