<svg xmlns="http://www.w3.org/2000/svg" width="13.154" height="13.153" viewBox="0 0 13.154 13.153">
  <path id="comment-image_2_" data-name="comment-image(2)" d="M7.036.016A6.578,6.578,0,0,0,.017,7.045c.241,3.482,3.317,6.109,7.155,6.109h3.243a2.744,2.744,0,0,0,2.74-2.74V6.764A6.692,6.692,0,0,0,7.036.016ZM3.563,3.837a.822.822,0,1,1-.822.822A.822.822,0,0,1,3.563,3.837ZM10.8,6.143,9,7.948a1.1,1.1,0,0,1-1.55,0L6.029,6.53,3.676,8.883A.548.548,0,0,1,2.9,8.108L5.254,5.755a1.122,1.122,0,0,1,1.55,0L8.222,7.173l1.8-1.8a.548.548,0,1,1,.775.775Z" transform="translate(-0.001 -0.001)" fill="#03314b"/>
</svg>
