<svg xmlns="http://www.w3.org/2000/svg" width="32.797" height="29.928" viewBox="0 0 32.797 29.928">
  <g id="Group_258" data-name="Group 258" transform="translate(-1192.657 -809.002)">
    <g id="Group_257" data-name="Group 257" transform="translate(1192.657 811.177)">
      <path id="Path_237" data-name="Path 237" d="M1213.219,857.841a13.654,13.654,0,0,1-6.094-1.609,28.943,28.943,0,0,1-7.392-5.609,29.412,29.412,0,0,1-5.224-6.781,14.49,14.49,0,0,1-1.819-5.772,9.03,9.03,0,0,1,.844-4.772,7.1,7.1,0,0,1,2.474-2.672,3.206,3.206,0,0,1,4.034.4c.849.808,1.681,1.636,2.486,2.487a3.316,3.316,0,0,1,.023,4.521,10.919,10.919,0,0,1-.959.964,2.434,2.434,0,0,0-.734,2.445,5.564,5.564,0,0,0,.825,2.082,16.447,16.447,0,0,0,5.389,5.347,4.815,4.815,0,0,0,2.855.819,2.044,2.044,0,0,0,1.443-.644c.352-.381.724-.747,1.107-1.1a3.312,3.312,0,0,1,4.471-.011q1.334,1.243,2.581,2.579a3.374,3.374,0,0,1,.057,4.429A7.672,7.672,0,0,1,1213.219,857.841Z" transform="translate(-1192.657 -830.089)" fill="#03314b"/>
    </g>
    <text id="SOS" transform="matrix(0.742, -0.67, 0.67, 0.742, 1207.928, 827.6)" fill="#03314b" font-size="11" font-family="Tajawal-Black, Tajawal" font-weight="800"><tspan x="0" y="0">SOS</tspan></text>
  </g>
</svg>
