<svg xmlns="http://www.w3.org/2000/svg" width="21.201" height="14.133" viewBox="0 0 21.201 14.133">
  <path id="Path_10" data-name="Path 10" d="M556.753,303.386a1.74,1.74,0,0,0-1.835.166.879.879,0,0,0-.1.085l-1.553,1.567a4.408,4.408,0,0,0-4.381-4.058h-7.95a4.42,4.42,0,0,0-4.417,4.416v5.3a4.422,4.422,0,0,0,4.417,4.417h7.95a4.408,4.408,0,0,0,4.383-4.087l1.551,1.549a1.1,1.1,0,0,0,.095.081,1.753,1.753,0,0,0,2.8-1.4v-6.464a1.742,1.742,0,0,0-.969-1.568Zm-7.865,10.126h-7.95a2.654,2.654,0,0,1-2.651-2.651v-5.3a2.654,2.654,0,0,1,2.651-2.651h7.95a2.654,2.654,0,0,1,2.651,2.651v5.3A2.654,2.654,0,0,1,548.888,313.511Zm4.417-4.786v-1.05l2.65-2.675.022,6.394-2.672-2.67Z" transform="translate(-536.521 -301.145)" fill="#fff"/>
</svg>
