<svg xmlns="http://www.w3.org/2000/svg" width="24" height="24" viewBox="0 0 24 24">
  <path id="calendar-clock" d="M17,10.039A6.981,6.981,0,1,0,24,17,7.008,7.008,0,0,0,17,10.039ZM17,22a4.981,4.981,0,1,1,5-5A4.987,4.987,0,0,1,17,22Zm1.707-4.707a1,1,0,1,1-1.414,1.414l-1-1A1,1,0,0,1,16,17V15a1,1,0,0,1,2,0v1.586ZM24,7V9a1,1,0,0,1-2,0V7a3,3,0,0,0-3-3H5A3,3,0,0,0,2,7V8h9a1,1,0,0,1,0,2H2v9a3,3,0,0,0,3,3H9a1,1,0,0,1,0,2H5a5.006,5.006,0,0,1-5-5V7A5.006,5.006,0,0,1,5,2H6V1A1,1,0,0,1,8,1V2h8V1a1,1,0,0,1,2,0V2h1a5.006,5.006,0,0,1,5,5Z" fill="#03314b"/>
</svg>
