<svg xmlns="http://www.w3.org/2000/svg" width="21.799" height="21.801" viewBox="0 0 21.799 21.801">
  <path id="Path_11" data-name="Path 11" d="M556.314,373.285a2.821,2.821,0,0,1,0,3.984l-.828.954c-7.452,7.135-25.586-10.995-18.562-18.47l1.047-.91a2.8,2.8,0,0,1,3.937.037c.028.028,1.714,2.218,1.714,2.218a2.821,2.821,0,0,1-.006,3.9l-1.054,1.325a11.629,11.629,0,0,0,6.306,6.32l1.333-1.061a2.821,2.821,0,0,1,3.9-.005S556.286,373.257,556.314,373.285Zm-1.252,1.323s-2.177-1.675-2.205-1.7a1,1,0,0,0-1.409,0c-.025.025-1.86,1.488-1.86,1.488a.91.91,0,0,1-.891.138,13.656,13.656,0,0,1-8.026-8.014.909.909,0,0,1,.132-.91s1.462-1.836,1.487-1.859a1,1,0,0,0,0-1.41c-.029-.027-1.7-2.206-1.7-2.206a1,1,0,0,0-1.374.035l-1.046.91c-5.134,6.172,10.581,21.015,15.99,15.9l.829-.955a1.02,1.02,0,0,0,.077-1.416Z" transform="translate(-535.338 -358.053)" fill="#fff"/>
</svg>
