<svg id="Group_6" data-name="Group 6" xmlns="http://www.w3.org/2000/svg" width="19.228" height="19.228" viewBox="0 0 19.228 19.228">
  <g id="Group_5" data-name="Group 5">
    <path id="Path_12" data-name="Path 12" d="M547.152,436.722a6.416,6.416,0,0,0,6.409-6.409v-3.2a6.409,6.409,0,1,0-12.818,0v3.2A6.416,6.416,0,0,0,547.152,436.722Zm0-14.421a4.811,4.811,0,0,1,4.735,4.006h-2.331a.8.8,0,1,0,0,1.6h2.4v1.6h-2.4a.8.8,0,1,0,0,1.6h2.331a4.8,4.8,0,0,1-9.469,0h2.332a.8.8,0,0,0,0-1.6h-2.4v-1.6h2.4a.8.8,0,0,0,0-1.6h-2.332A4.812,4.812,0,0,1,547.152,422.3Z" transform="translate(-537.538 -420.699)" fill="#fff"/>
    <path id="Path_13" data-name="Path 13" d="M553.455,437.84a.8.8,0,0,0-.8.8,7.218,7.218,0,0,1-7.21,7.21h-1.6a7.219,7.219,0,0,1-7.21-7.21.8.8,0,1,0-1.6,0,8.823,8.823,0,0,0,8.813,8.813h1.6a8.823,8.823,0,0,0,8.813-8.813A.8.8,0,0,0,553.455,437.84Z" transform="translate(-535.029 -428.226)" fill="#fff"/>
  </g>
</svg>
