<svg xmlns="http://www.w3.org/2000/svg" xmlns:xlink="http://www.w3.org/1999/xlink" width="15.553" height="17.946" viewBox="0 0 15.553 17.946">
  <defs>
    <clipPath id="clip-path">
      <rect width="15.553" height="17.946" fill="none"/>
    </clipPath>
  </defs>
  <g id="Layer_17" data-name="Layer 17" clip-path="url(#clip-path)">
    <g id="Layer_17-2" data-name="Layer 17">
      <path id="Path_20" data-name="Path 20" d="M16.366,21.759H6.795A1.8,1.8,0,0,1,5,19.964V8.6a.6.6,0,0,1,1.2,0V19.964a.6.6,0,0,0,.6.6h9.571a.6.6,0,0,0,.6-.6V8.6a.6.6,0,0,1,1.2,0V19.964A1.8,1.8,0,0,1,16.366,21.759Z" transform="translate(-3.804 -3.813)" fill="#03314b"/>
      <path id="Path_21" data-name="Path 21" d="M17.955,6.2H3.6A.6.6,0,1,1,3.6,5H17.955a.6.6,0,1,1,0,1.2Z" transform="translate(-3 -2.607)" fill="#03314b"/>
      <path id="Path_22" data-name="Path 22" d="M16.384,4.589a.6.6,0,0,1-.6-.6V2.2H12.2V3.991a.6.6,0,0,1-1.2,0V1.6a.6.6,0,0,1,.6-.6h4.786a.6.6,0,0,1,.6.6V3.991A.6.6,0,0,1,16.384,4.589Z" transform="translate(-6.214 -1)" fill="#03314b"/>
      <path id="Path_23" data-name="Path 23" d="M15.6,19.571a.6.6,0,0,1-.6-.6V10.6a.6.6,0,0,1,1.2,0v8.375A.6.6,0,0,1,15.6,19.571Z" transform="translate(-7.822 -4.616)" fill="#03314b"/>
      <path id="Path_24" data-name="Path 24" d="M20.6,19.178a.6.6,0,0,1-.6-.6V12.6a.6.6,0,0,1,1.2,0V18.58A.6.6,0,0,1,20.6,19.178Z" transform="translate(-9.83 -5.42)" fill="#03314b"/>
      <path id="Path_25" data-name="Path 25" d="M10.6,19.178a.6.6,0,0,1-.6-.6V12.6a.6.6,0,0,1,1.2,0V18.58A.6.6,0,0,1,10.6,19.178Z" transform="translate(-5.813 -5.42)" fill="#03314b"/>
    </g>
  </g>
</svg>
